<svg width="94" height="34" viewBox="0 0 94 34" fill="none" xmlns="http://www.w3.org/2000/svg">
<path d="M0 0V26.5313L3.39444 26.5444V13.9105H11.5542V10.5678H3.38139V3.32957H14.0217V0H0ZM20.1056 5.39575C20.6942 5.39575 21.2587 5.16004 21.6749 4.74047C22.0912 4.3209 22.325 3.75184 22.325 3.15849C22.325 2.56513 22.0912 1.99607 21.6749 1.5765C21.2587 1.15694 20.6942 0.921225 20.1056 0.921225C19.5169 0.921225 18.9524 1.15694 18.5362 1.5765C18.1199 1.99607 17.8861 2.56513 17.8861 3.15849C17.8861 3.75184 18.1199 4.3209 18.5362 4.74047C18.9524 5.16004 19.5169 5.39575 20.1056 5.39575ZM18.3953 8.72532V26.5444H21.7897V8.72532H18.3953Z" fill="#F1F1F1"/>
<path fill-rule="evenodd" clip-rule="evenodd" d="M34.3361 8.21205C29.845 8.21205 26.7116 12.0417 26.7116 16.5952C26.7116 21.1487 29.845 24.9783 34.3361 24.9783C36.3988 24.9783 38.0961 24.1887 39.3363 22.8727V25.2416C39.345 25.9494 39.2143 26.6519 38.952 27.3085C38.6896 27.9651 38.3008 28.5627 37.8079 29.0669C37.315 29.5711 36.7278 29.9718 36.0804 30.2459C35.4329 30.52 34.738 30.6619 34.0358 30.6636C32.9522 30.6636 31.8816 30.2425 31.033 29.6371L29.3358 32.5982C30.6482 33.4533 32.1652 33.9355 33.7268 33.994C35.2884 34.0524 36.8367 33.6849 38.2083 32.9302C39.58 32.1756 40.7241 31.0617 41.5201 29.7061C42.3161 28.3506 42.7344 26.8036 42.7308 25.2284V8.73846H39.3363V10.3309C38.0961 9.01483 36.3988 8.22521 34.3361 8.22521V8.21205ZM30.093 16.5952C30.093 13.7657 32.2341 11.5416 34.7147 11.5416C37.1952 11.5416 39.3233 13.7789 39.3233 16.5952C39.3233 19.4247 37.1822 21.6356 34.7147 21.6356C32.2341 21.6356 30.093 19.4247 30.093 16.5952Z" fill="#F1F1F1"/>
<path d="M54.9247 11.5417C53.9538 11.559 53.0288 11.9608 52.3496 12.6602C51.6704 13.3597 51.2916 14.3005 51.2952 15.2792V26.5445H47.9008V8.72538H51.2952V10.3573C51.8031 9.67878 52.4628 9.13082 53.2205 8.75805C53.9783 8.38527 54.8127 8.19822 55.6558 8.21213C58.0319 8.21213 59.8597 9.39656 60.9041 11.2127C61.4868 10.3023 62.2843 9.55163 63.2252 9.02799C64.1662 8.50435 65.2213 8.22404 66.2961 8.21213C70.1474 8.21213 72.5627 11.3443 72.5627 15.2266V26.5445H69.1944V15.2661C69.198 14.2873 68.8192 13.3465 68.14 12.6471C67.4608 11.9476 66.5358 11.5458 65.5649 11.5285C64.5941 11.5458 63.6691 11.9476 62.9899 12.6471C62.3107 13.3465 61.9319 14.2873 61.9355 15.2661V26.5313H58.541V15.2661C58.5447 14.2896 58.1677 13.3507 57.4913 12.6516C56.8149 11.9525 55.8932 11.5492 54.9247 11.5285V11.5417Z" fill="#F1F1F1"/>
<path fill-rule="evenodd" clip-rule="evenodd" d="M90.6186 10.752C89.8478 9.94184 88.9211 9.2987 87.8952 8.86197C86.8693 8.42524 85.7658 8.2041 84.6522 8.2121C79.6128 8.2121 76.0356 12.5024 76.0356 17.6349C76.0356 22.7675 79.6128 27.0577 84.6522 27.0577C85.7655 27.0634 86.8683 26.8412 87.8939 26.4046C88.9194 25.9681 89.8464 25.3261 90.6186 24.5178V26.5445H94V8.72535H90.6056V10.752H90.6186ZM79.4169 17.6349C79.4169 14.2395 82.002 11.5417 85.0178 11.5417C88.0206 11.5417 90.6186 14.2395 90.6186 17.6349C90.6186 21.0303 88.0336 23.715 85.0178 23.715C82.015 23.715 79.4169 21.0303 79.4169 17.6349Z" fill="#F1F1F1"/>
</svg>
